<?xml version="1.0" encoding="UTF-8"?>
<svg version="1.1" viewBox="0 0 1782 1782" width="1280" height="1280" xmlns="http://www.w3.org/2000/svg">
<path transform="translate(1326,724)" d="m0 0h21l17 3 10 4 9 7 5 6 4 9 20 81 28 118 9 39h-10l-16-4-14-7-7-6-7-10-6-14-5-5-6-3-43-1-12 2-8 5-6 7-6 13-4 6-9 8-11 5-11 3-14 1 1-8 18-79 28-117 10-42 5-14 7-6zm21 69-2 5-22 103v2h54l-1-9-22-101z" fill="#A1C4D4"/>
<path transform="translate(1520,725)" d="m0 0h5l1 6v198l-1 22-4 13-6 9-8 7-13 6-17 4-4-1-1-182v-37l2-13 4-10 9-10 9-6 11-4z" fill="#F291CC"/>
<path transform="translate(777,809)" d="m0 0h16l13 3 11 6 8 8 6 10 3 8 7-6 8-8 13-10 15-8 11-3h17l15 4 11 7 8 9 6 13 4 16 1 9v128h-17l-1-123-2-16-5-14-7-9-8-5-7-2-13-1-10 2-9 4-10 6-11 10-11 11-1 137h-17l-1-128-3-16-7-14-8-7-10-4-13-1-11 2-14 7-9 7-10 9-7 7-1 138h-17v-182h14l1 6 1 16 1 6 7-8 13-11 16-9z" fill="#fff"/>
<path transform="translate(1321,726)" d="m0 0 4 1 1 164-3 12h2v39l-9 5-7 8-6 13-4 6-9 8-11 5-11 3-14 1 1-8 18-79 28-117 10-42 5-14z" fill="#50D8D0"/>
<path transform="translate(611,807)" d="m0 0h22l14 3 9 4 9 6 9 10 6 12 4 15 1 7 1 100 2 26h-17l-2-12-1-10-1-2-7 8-9 8-10 6-15 5-5 1h-22l-15-4-11-7-8-8-5-8-4-13v-20l4-13 7-11 10-10 13-8 16-6 17-4 15-2 14-1h15l-3-25-5-12-4-6-8-7-9-4-12-2h-11l-19 3-15 6-5 3h-2l-5-11 1-3 16-8 18-5zm26 88-19 3-16 5-12 7-8 8-5 9-2 9v13l4 13 7 9 10 6 7 2h18l12-3 12-6 11-10 7-11 4-13v-41z" fill="#fff"/>
<path transform="translate(330,813)" d="m0 0h22l16 3 16 6 13 7 1 2-9 11-5-2-16-8-15-4h-24l-11 3-10 5-7 8-3 8v10l4 8 8 7 14 7 36 12 16 6 15 8 7 6 6 9 3 7 1 6v10l-4 13-8 11-10 8-13 6-17 4h-30l-19-4-19-7-14-8-5-5 10-10 5 2 16 9 12 5 14 3 9 1h13l16-3 14-7 6-7 4-10v-11l-5-10-8-7-16-8-36-12-20-8-12-8-8-9-4-9-1-4v-10l4-13 7-9 8-7 12-6 14-4z" fill="#fff"/>
<path transform="translate(458,768)" d="m0 0h15l1 1v48h56l1 1v13h-57l1 122 4 11 5 6 8 4 4 1h20l16-4 4 10-1 4-21 5h-23l-13-4-8-5-7-7-4-8-3-10-1-7v-118h-31v-12l3-1 29-1v-21l1-21z" fill="#fff"/>
<path transform="translate(1326,724)" d="m0 0h21l17 3 6 3v123l-1 5-2-1-13-60v-4l-7 1-20 93h-1l-1-6-1-154-1-2z" fill="#76C7CF"/>
<path transform="translate(1109,852)" d="m0 0 4 2 8 8 8 14 4 12 1 6v17l1-8v-9l-3-16-7-15v-2l3-1 9 19 3 13v20l-4 15-1 3 4-10 2-8 1-9v-9l-3-17-1-4h3l4 11 1 5v24l-4 16-7 14-11 13 5-5 6-7 7-12 5-15 2-14v-15h3l1 8v12l-3 16-5 14-9 14-11 12-11 8 7-4 10-9 9-10 8-14 5-13 3-13h3l-1 9-4 14-8 16-6 9-9 10-8 7-14 8-16 6-15 3h-7l-2-2 1-4 2-1 17-2 2-1-1-5 9-4 10-5-3-2 1-4 14-11-4-1v-5l8-10 1-2-5-1 1-6 4-11 2-12-1-15-3-10-5-10-8-10-3-2zm23 63 1 4zm-1 4 1 3zm-1 3 1 2zm-1 3m-1 2m-1 2m-1 2m5 4 1 2zm-1 2v3zm-2 3m-1 1 1 2zm-1 2m-1 1m-2 3m-1 1m-1 10m-1 1m-2 1-1 2 3-1z" fill="#fff"/>
<path transform="translate(1067,810)" d="m0 0h10l14 2 16 5 13 7 13 10 7 7 8 11-1 5-3 1-8-10-6-8-2 4-5-1-10-8-4-2-1 4-3 1-15-6-1 4-1 1-18-1 1 5-1 1-17 3-10 4-10 6-6 5-8 11-5 11-3 10-3-1 4-16 8-14 9-10 8-6 10-5 5-2-11 4-9 5-10 9-6 7-7 11h-2l1-5 6-11 11-12 10-7 10-5 13-4 4-1-12 2-13 5-11 7-10 9-4 1 2-4 6-7 11-8 12-6 13-4 6-1h19l-5-1h-15l-15 3-16 7-3 2h-3l2-4 12-7 17-5 5-1h24l16 4 10 4-14-6-12-3-8-1h-15l-16 3-6 2h-5v-2l18-6zm24 15m3 1m3 1m16 0 1 2 2-1zm-13 1m-22 1m24 0m14 0 1 2 2-1zm-11 1m2 1m12 0 1 2 2-1zm3 2m1 1m1 1m-67 1 4 1z" fill="#fff"/>
<path transform="translate(992,855)" d="m0 0 4 1-1 7-5 11-1 4 5 1 1 2-2 19 5-1 2 7 2 12 4-2 3 3 5 12 1 1 3-3 4 2 6 8 8 8 12 7 9 3 6 1h17l10-2 1 3-9 3-5 1h-16l-16-4-13-7-7-6 5 5 9 6 11 5 13 3 15 1v3h-20l-15-4-13-7-10-8-8-9 6 8 5 5 7 6 16 8 14 4v3l-13-2-16-7-14-10-7-7-9-14-5-12-2-6 5 16 7 12 8 10 11 10 11 7-1 3-11-6-9-7-7-6-10-13-7-15-4-15-1-3 3 15 5 13 6 11 8 10 6 7-3 2-12-13-10-16-6-15-3-13v-23l4-17 6-15zm-4 23 1 2zm-1 3 1 3zm-1 5 1 4zm16 35m1 3m1 3m1 2m1 2 1 2zm1 2 1 2zm1 2 1 3v-3zm8 0m1 2m1 1m1 1 1 2z" fill="#fff"/>
<path transform="translate(1325,903)" d="m0 0h45v37l-5 1h-30l-10 1z" fill="#76C7CF"/>
<path transform="translate(1186,961)" d="m0 0h7l6 3 4 4 2 6-1 10-7 8-3 1h-9l-7-4-3-5-1-10 3-7 6-5z" fill="#fff"/>
</svg>
